<?xml version="1.0" standalone="no"?>
<!DOCTYPE svg PUBLIC "-//W3C//DTD SVG 1.1//EN" "http://www.w3.org/Graphics/SVG/1.1/DTD/svg11.dtd">
<svg xmlns="http://www.w3.org/2000/svg">
<metadata>Copyright (C) 2014 by original authors @ fontello.com</metadata>
<defs>
<font id="google-icons" horiz-adv-x="1000" >
<font-face font-family="google-icons" font-weight="400" font-stretch="normal" units-per-em="1000" ascent="850" descent="-150" />
<missing-glyph horiz-adv-x="1000" />
<glyph glyph-name="person" unicode="&#xe800;" d="m500 350c92 0 167 75 167 167 0 91-75 166-167 166-92 0-167-75-167-166 0-92 75-167 167-167z m0-83c-112 0-333-54-333-167v-83h666v83c0 113-220 167-333 167z" horiz-adv-x="1000" />
<glyph glyph-name="person-add" unicode="&#xe801;" d="m625 350c92 0 167 75 167 167 0 91-75 166-167 166-92 0-167-75-167-166 0-92 75-167 167-167z m-375 83v125h-83v-125h-125v-83h125v-125h83v125h125v83h-125z m375-166c-112 0-333-54-333-167v-83h666v83c0 113-220 167-333 167z" horiz-adv-x="1000" />
<glyph glyph-name="photo-library" unicode="&#xe802;" d="m958 142v583c0 46-37 83-83 83h-583c-46 0-84-37-84-83v-583c0-46 38-84 84-84h583c46 0 83 38 83 84z m-520 229l104-125 146 187 187-250h-583l146 188z m-396 271v-667c0-46 37-83 83-83h667v83h-667v667h-83z" horiz-adv-x="1000" />
<glyph glyph-name="play" unicode="&#xe803;" d="m333 642l0-584 459 292z" horiz-adv-x="1000" />
<glyph glyph-name="poll" unicode="&#xe804;" d="m792 725h-584c-45 0-83-37-83-83v-584c0-45 38-83 83-83h584c46 0 83 38 83 83v584c0 46-37 83-83 83z m-417-583h-83v291h83v-291z m167 0h-84v416h84v-416z m166 0h-83v166h83v-166z" horiz-adv-x="1000" />
<glyph glyph-name="popular" unicode="&#xe805;" d="m583 767c0 0 25-104 25-188 0-79-54-146-133-146-79 0-142 67-142 146l0 13c-79-96-125-217-125-346 0-171 142-313 313-313 171 0 312 142 312 313 0 212-95 400-250 521z m-62-709c-71 0-125 55-125 121 0 63 42 109 108 121 71 13 142 46 179 100 17-50 25-104 25-158 0-100-83-184-187-184z" horiz-adv-x="1000" />
<glyph glyph-name="print" unicode="&#xe806;" d="m792 517h-584c-70 0-125-54-125-125v-250h167v-167h500v167h167v250c0 71-54 125-125 125z m-125-459h-334v209h334v-209z m125 292c-25 0-42 17-42 42s17 41 42 41c25 0 41-16 41-41s-16-42-41-42z m-42 375h-500v-167h500v167z" horiz-adv-x="1000" />
<glyph glyph-name="refresh" unicode="&#xe807;" d="m733 583c-58 63-141 100-233 100-183 0-333-150-333-333s150-333 333-333c154 0 283 108 321 250h-88c-33-96-125-167-233-167-137 0-250 113-250 250s113 250 250 250c71 0 129-29 175-75l-133-133h291v291l-100-100z" horiz-adv-x="1000" />
<glyph glyph-name="replay" unicode="&#xe808;" d="m500 642v166l-208-208 208-208v166c138 0 250-112 250-250s-112-250-250-250c-137 0-250 113-250 250h-83c0-183 150-333 333-333 183 0 333 150 333 333s-150 334-333 334z" horiz-adv-x="1000" />
<glyph glyph-name="reply" unicode="&#xe809;" d="m417 475v167l-292-292 292-292v171c208 0 354-66 458-212-42 208-167 416-458 458z" horiz-adv-x="1000" />
<glyph glyph-name="reply-all" unicode="&#xe80a;" d="m292 517v125l-292-292 292-292v125l-167 167 167 167z m250-42v167l-292-292 292-292v171c208 0 354-66 458-212-42 208-167 416-458 458z" horiz-adv-x="1000" />
<glyph glyph-name="report" unicode="&#xe80b;" d="m654 725h-308l-221-221v-312l221-217h312l221 221v308l-225 221z m-154-596c-29 0-54 25-54 54 0 30 25 55 54 55 29 0 54-25 54-55 0-29-25-54-54-54z m42 179h-84v250h84v-250z" horiz-adv-x="1000" />
<glyph glyph-name="rotate-left" unicode="&#xe80c;" d="m296 496l-58 58c-38-50-63-104-67-162h83c4 37 21 71 42 104z m-42-188h-83c8-58 29-112 67-162l58 58c-21 34-38 67-42 104z m42-220c50-38 104-59 162-67v83c-37 4-70 21-104 42l-58-58z m246 591v129l-188-187 188-188v163c116-21 208-121 208-246s-92-225-208-246v-83c162 21 291 162 291 329s-129 308-291 329z" horiz-adv-x="1000" />
<glyph glyph-name="rotate-right" unicode="&#xe80d;" d="m646 621l-188 187v-129c-162-21-291-158-291-329s129-308 291-329v83c-116 21-208 121-208 246s92 225 208 246v-163l188 188z m183-229c-8 58-29 112-66 162l-59-58c21-33 38-67 42-104h83z m-287-288v-83c58 8 112 29 162 67l-58 58c-33-21-67-38-104-42z m162 100l59-58c37 50 62 104 66 162h-83c-4-37-21-70-42-104z" horiz-adv-x="1000" />
<glyph glyph-name="save" unicode="&#xe80e;" d="m708 725h-500c-45 0-83-37-83-83l0-584c0-45 38-83 83-83h584c46 0 83 38 83 83v500l-167 167z m-208-667c-71 0-125 55-125 125s54 125 125 125c71 0 125-54 125-125s-54-125-125-125z m125 417h-417v167h417v-167z" horiz-adv-x="1000" />
<glyph glyph-name="search" unicode="&#xe80f;" d="m646 267h-33l-13 12c42 46 67 109 67 175 0 150-121 271-271 271-150 0-271-121-271-271s121-271 271-271c67 0 129 25 175 67l12-12v-34l209-208 62 62-208 209z m-250 0c-104 0-188 83-188 187s84 188 188 188c104 0 187-84 187-188s-83-187-187-187z" horiz-adv-x="1000" />
<glyph glyph-name="select-all" unicode="&#xe810;" d="m125 642h83v83c-45 0-83-37-83-83z m0-334h83v84h-83v-84z m167-333h83v83h-83v-83z m-167 500h83v83h-83v-83z m417 250h-84v-83h84v83z m250 0v-83h83c0 46-37 83-83 83z m-584-750v83h-83c0-45 38-83 83-83z m-83 167h83v83h-83v-83z m250 583h-83v-83h83v83z m83-750h84v83h-84v-83z m334 333h83v84h-83v-84z m0-333c46 0 83 38 83 83h-83v-83z m0 500h83v83h-83v-83z m0-333h83v83h-83v-83z m-167-167h83v83h-83v-83z m0 667h83v83h-83v-83z m-333-500h416v416h-416v-416z m83 333h250v-250h-250v250z" horiz-adv-x="1000" />
<glyph glyph-name="shopping-basket" unicode="&#xe812;" d="m717 475l-184 275c-8 8-20 17-33 17-12 0-25-4-33-17l-184-275h-200c-25 0-41-17-41-42 0-4 0-8 0-12l104-388c8-33 42-62 79-62h542c37 0 71 25 79 62l104 388c0 4 0 8 0 12 0 25-17 42-42 42h-191z m-342 0l125 183 125-183h-250z m125-333c-46 0-83 37-83 83s37 83 83 83c46 0 83-37 83-83s-37-83-83-83z" horiz-adv-x="1000" />
<glyph glyph-name="shopping-cart" unicode="&#xe813;" d="m292 100c-46 0-84-37-84-83s38-84 84-84c46 0 83 38 83 84s-37 83-83 83z m-250 667v-84h83l150-316-58-100c-4-13-9-29-9-42 0-46 38-83 84-83h500v83h-484c-4 0-8 4-8 8 0 0 0 5 0 5l38 70h308c33 0 58 17 71 42l150 271c8 8 8 12 8 21 0 25-17 41-42 41h-616l-38 84h-137z m666-667c-45 0-83-37-83-83s38-84 83-84c46 0 84 38 84 84s-38 83-84 83z" horiz-adv-x="1000" />
<glyph glyph-name="shuffle" unicode="&#xe814;" d="m442 467l-217 216-58-58 216-217 59 59z m162 216l84-83-521-525 58-58 525 521 83-84v229h-229z m13-391l-59-59 130-129-84-83h229v229l-83-83-133 125z" horiz-adv-x="1000" />
<glyph glyph-name="sidebar" unicode="&#xe815;" d="m833 683h-666c-50 0-84-33-84-83v-500c0-50 34-83 84-83h666c42 0 84 33 84 83v500c0 50-42 83-84 83z m0-583h-250v500h250v-500z" horiz-adv-x="1000" />
<glyph glyph-name="skip-next" unicode="&#xe816;" d="m250 100l354 250-354 250v-500z m417 500v-500h83v500h-83z" horiz-adv-x="1000" />
<glyph glyph-name="skip-previous" unicode="&#xe817;" d="m250 600l83 0 0-500-83 0z m146-250l354-250 0 500z" horiz-adv-x="1000" />
<glyph glyph-name="star" unicode="&#xe818;" d="m500 130l258-155-69 293 228 197-300 26-117 276-117-276-300-26 228-197-68-293z" horiz-adv-x="1000" />
<glyph glyph-name="star-half" unicode="&#xe819;" d="m917 444l-300 26-117 276-117-276-300-26v0l0 0 228-197-68-293 257 156 0 0 258-156-69 293 228 197z m-417-256v387l71-168 183-16-139-119 42-179-157 95z" horiz-adv-x="1000" />
<glyph glyph-name="star-outline" unicode="&#xe81a;" d="m917 465l-300 26-117 276-117-276-300-26 228-197-68-293 257 155 258-155-69 293 228 197z m-417-256l-157-95 42 178-139 120 183 16 71 168 71-168 183-16-139-120 42-178-157 95z" horiz-adv-x="1000" />
<glyph glyph-name="stop" unicode="&#xe81b;" d="m250 600l500 0 0-500-500 0z" horiz-adv-x="1000" />
<glyph glyph-name="swap-horizontal" unicode="&#xe81c;" d="m292 392l-167-167 167-167v125h291v84h-291v125z m583 83l-167 167v-125h-291v-84h291v-125l167 167z" horiz-adv-x="1000" />
<glyph glyph-name="swap-vertical" unicode="&#xe81d;" d="m667 142v291h-84v-291h-125l167-167 167 167h-125z m-292 583l-167-167h125v-291h84v291h125l-167 167z" horiz-adv-x="1000" />
<glyph glyph-name="thumb-down" unicode="&#xe81e;" d="m625 725h-375c-33 0-62-21-75-50l-125-296c-4-8-8-16-8-29v-79l0 0c0 0 0-4 0-4 0-46 37-84 83-84h263l-42-191c0-5 0-9 0-13 0-17 8-33 17-46l45-41 275 275c17 16 25 37 25 58v417c0 46-37 83-83 83z m167 0v-500h166v500h-166z" horiz-adv-x="1000" />
<glyph glyph-name="thumb-up" unicode="&#xe81f;" d="m42-25h166v500h-166v-500z m916 458c0 46-37 84-83 84h-262l41 191c0 5 0 9 0 13 0 17-8 33-16 46l-46 41-275-275c-17-12-25-33-25-58v-417c0-45 37-83 83-83h375c33 0 63 21 75 50l125 296c4 8 4 21 4 29v83l4 0c0-4 0 0 0 0z" horiz-adv-x="1000" />
<glyph glyph-name="trash" unicode="&#xe820;" d="m250 58c0-45 38-83 83-83h334c46 0 83 38 83 83v500h-500v-500z m542 625h-146l-42 42h-208l-42-42h-146v-83h584v83z" horiz-adv-x="1000" />
<glyph glyph-name="undo" unicode="&#xe821;" d="m500 642v146l-208-209 208-208v187c138 0 250-112 250-250s-112-250-250-250c-137 0-250 113-250 250h-83c0-183 150-333 333-333 183 0 333 150 333 333s-150 334-333 334z" horiz-adv-x="1000" />
<glyph glyph-name="upload" unicode="&#xe822;" d="m375 183l250 0 0 250 167 0-292 292-292-292 167 0z m-167-83l584 0 0-83-584 0z" horiz-adv-x="1000" />
<glyph glyph-name="usb" unicode="&#xe823;" d="m625 558v-166h42v-84h-125v334h83l-125 166-125-166h83v-334h-125v88c30 12 50 46 50 79 0 50-41 92-91 92-50 0-92-42-92-92 0-33 21-67 50-79v-88c0-45 38-83 83-83h125v-129c-29-17-50-46-50-79 0-50 42-92 92-92 50 0 92 42 92 92 0 37-21 66-50 79v129h125c46 0 83 38 83 83v84h42v166h-167z" horiz-adv-x="1000" />
<glyph glyph-name="video" unicode="&#xe824;" d="m708 413v145c0 25-16 42-41 42h-500c-25 0-42-17-42-42v-416c0-25 17-42 42-42h500c25 0 41 17 41 42v146l167-167v458l-167-166z" horiz-adv-x="1000" />
<glyph glyph-name="video-off" unicode="&#xe825;" d="m875 579l-167-166v145c0 25-16 42-41 42h-259l467-467v446z m-737 188l-55-54 113-113h-29c-25 0-42-17-42-42v-416c0-25 17-42 42-42h500c8 0 16 4 21 8l133-133 54 54-737 738z" horiz-adv-x="1000" />
<glyph glyph-name="view-array" unicode="&#xe826;" d="m167 100h125v542h-125v-542z m583 542v-542h125v542h-125z m-417-542h375v542h-375v-542z" horiz-adv-x="1000" />
<glyph glyph-name="view-column" unicode="&#xe827;" d="m417 100h208v542h-208v-542z m-250 0h208v542h-208v-542z m500 542v-542h208v542h-208z" horiz-adv-x="1000" />
<glyph glyph-name="view-grid" unicode="&#xe828;" d="m167 392h208v250h-208v-250z m0-292h208v250h-208v-250z m250 0h208v250h-208v-250z m250 0h208v250h-208v-250z m-250 292h208v250h-208v-250z m250 250v-250h208v250h-208z" horiz-adv-x="1000" />
<glyph glyph-name="view-headline" unicode="&#xe829;" d="m167 225h708v83h-708v-83z m0-167h708v84h-708v-84z m0 334h708v83h-708v-83z m0 250v-84h708v84h-708z" horiz-adv-x="1000" />
<glyph glyph-name="view-list" unicode="&#xe82a;" d="m167 267h166v166h-166v-166z m0-209h166v167h-166v-167z m0 417h166v167h-166v-167z m208-208h500v166h-500v-166z m0-209h500v167h-500v-167z m0 584v-167h500v167h-500z" horiz-adv-x="1000" />
<glyph glyph-name="view-quilt" unicode="&#xe82b;" d="m417 100h208v250h-208v-250z m-250 0h208v542h-208v-542z m500 0h208v250h-208v-250z m-250 542v-250h458v250h-458z" horiz-adv-x="1000" />
<glyph glyph-name="view-stream" unicode="&#xe82c;" d="m417 100h208v250h-208v-250z m-250 0h208v542h-208v-542z m500 0h208v250h-208v-250z m-250 542v-250h458v250h-458z" horiz-adv-x="1000" />
<glyph glyph-name="visibility" unicode="&#xe82d;" d="m500 663c-208 0-387-130-458-313 71-183 250-312 458-312 208 0 388 129 458 312-70 183-250 313-458 313z m0-521c-117 0-208 91-208 208s91 208 208 208c117 0 208-91 208-208s-91-208-208-208z m0 333c-71 0-125-54-125-125s54-125 125-125c71 0 125 54 125 125s-54 125-125 125z" horiz-adv-x="1000" />
<glyph glyph-name="visibility-off" unicode="&#xe82e;" d="m500 558c117 0 208-91 208-208 0-25-4-54-16-75l121-121c62 54 112 121 141 196-71 183-250 313-458 313-58 0-113-13-167-30l92-91c25 12 54 16 79 16z m-417 113l96-96 17-17c-71-54-125-125-154-208 71-183 250-312 458-312 63 0 125 12 183 33l17-17 121-121 54 54-737 738-55-54z m230-229l62-63c0-12 0-21 0-29 0-71 54-125 125-125 8 0 17 0 29 4l63-62c-29-17-59-25-92-25-117 0-208 91-208 208 0 33 8 63 21 92z m179 33l129-129c0 4 0 4 0 8 0 71-54 125-125 125 0-4 0-4-4-4z" horiz-adv-x="1000" />
<glyph glyph-name="volume-down" unicode="&#xe82f;" d="m771 350c0 75-42 138-104 167v-334c62 30 104 92 104 167z m-563 125c0 0 0-250 0-250h167l208-208v666l-208-208h-167z" horiz-adv-x="1000" />
<glyph glyph-name="volume-mute" unicode="&#xe830;" d="m292 475c0 0 0-250 0-250h166l209-208v666l-209-208h-166z" horiz-adv-x="1000" />
<glyph glyph-name="volume-off" unicode="&#xe831;" d="m688 350c0 75-42 138-105 167v-92l105-104c0 12 0 21 0 29z m104 0c0-37-9-75-21-108l62-63c30 50 42 113 42 175 0 179-125 329-292 367v-88c121-41 209-150 209-283z m-613 375l-54-54 196-196h-196c0 0 0-250 0-250h167l208-208v279l179-179c-29-21-58-38-96-50v-88c59 13 109 38 155 75l83-83 54 54-375 375-321 325z m321-42l-87-87 87-88v175z" horiz-adv-x="1000" />
<glyph glyph-name="volume-up" unicode="&#xe832;" d="m125 475c0 0 0-250 0-250h167l208-208v666l-208-208h-167z m563-125c0 75-42 138-105 167v-334c63 30 105 92 105 167z m-105 367v-88c121-37 209-146 209-279s-88-242-209-279v-88c167 38 292 188 292 367s-125 329-292 367z" horiz-adv-x="1000" />
<glyph glyph-name="world" unicode="&#xe833;" d="m500 767c-229 0-417-188-417-417 0-229 188-417 417-417 229 0 417 188 417 417 0 229-188 417-417 417z m-42-746c-162 21-291 162-291 329 0 25 4 50 8 75l200-200v-42c0-45 38-83 83-83v-79z m288 104c-13 33-42 58-79 58h-42v125c0 25-17 42-42 42h-250v83h84c25 0 41 17 41 42v83h84c46 0 83 38 83 84v16c121-50 208-170 208-308 0-87-33-167-87-225z" horiz-adv-x="1000" />
<glyph glyph-name="write" unicode="&#xe834;" d="m125 133v-158h158l459 463-159 158-458-463z m738 425c16 17 16 42 0 59l-96 96c-17 16-42 16-59 0l-75-75 159-159 71 79z" horiz-adv-x="1000" />
<glyph glyph-name="youtube" unicode="&#xe835;" d="m833 667c-25 8-179 16-333 16-154 0-308-8-333-16-67-21-84-167-84-317s17-296 84-317c25-8 179-16 333-16 154 0 308 8 333 16 67 21 84 167 84 317s-17 296-84 317z m-416-504v375l250-188-250-187z" horiz-adv-x="1000" />
<glyph glyph-name="add" unicode="&#xe836;" d="m792 308h-250v-250h-84v250h-250v84h250v250h84v-250h250v-84z" horiz-adv-x="1000" />
<glyph glyph-name="add-alarm" unicode="&#xe837;" d="m329 708l-54 63-192-158 55-63 191 158z m588-95l-192 162-54-62 192-163 54 63z m-417 70c-208 0-375-166-375-375 0-208 167-375 375-375s375 167 375 375c0 209-167 375-375 375z m0-666c-162 0-292 129-292 291 0 163 130 292 292 292 163 0 292-129 292-292 0-162-129-291-292-291z m42 458h-84v-125h-125v-83h125v-125h84v125h125v83h-125v125z" horiz-adv-x="1000" />
<glyph glyph-name="alarms" unicode="&#xe838;" d="m917 613l-192 162-54-62 192-163 54 63z m-588 95l-54 63-192-158 55-63 191 158z m192-191h-63v-250l196-121 34 50-167 100v221z m-21 166c-208 0-375-166-375-375 0-208 167-375 375-375s375 167 375 375c0 209-167 375-375 375z m0-666c-162 0-292 129-292 291 0 163 130 292 292 292 163 0 292-129 292-292 0-162-129-291-292-291z" horiz-adv-x="1000" />
<glyph glyph-name="apps" unicode="&#xe839;" d="m167 517h166v166h-166v-166z m250-500h166v166h-166v-166z m-250 0h166v166h-166v-166z m0 250h166v166h-166v-166z m250 0h166v166h-166v-166z m250 416v-166h166v166h-166z m-250-166h166v166h-166v-166z m250-250h166v166h-166v-166z m0-250h166v166h-166v-166z" horiz-adv-x="1000" />
<glyph glyph-name="archive" unicode="&#xe83a;" d="m854 633l-58 71c-8 13-25 21-46 21h-500c-21 0-37-8-50-21l-54-71c-13-16-21-33-21-54v-521c0-45 38-83 83-83h584c46 0 83 38 83 83v521c0 21-8 38-21 54z m-354-512l-229 229h146v83h166v-83h146l-229-229z m-287 521l33 41h500l37-41h-570z" horiz-adv-x="1000" />
<glyph glyph-name="attachment" unicode="&#xe83b;" d="m313 100c-125 0-230 104-230 229s105 229 230 229h437c92 0 167-75 167-166s-75-167-167-167h-354c-58 0-104 46-104 104s46 104 104 104h312v-62h-312c-25 0-42-17-42-42s17-41 42-41h354c58 0 104 45 104 104s-46 104-104 104h-437c-92 0-167-75-167-167s75-166 167-166h395v-63h-395z" horiz-adv-x="1000" />
<glyph glyph-name="back" unicode="&#xe83c;" d="m833 392h-508l233 233-58 58-333-333 333-333 58 58-233 233h508v84z" horiz-adv-x="1000" />
<glyph glyph-name="bluetooth" unicode="&#xe83d;" d="m738 529l-238 238h-42v-317l-191 192-59-59 234-233-234-233 59-59 191 192v-317h42l238 238-180 179 180 179z m-196 79l79-79-79-79v158z m79-437l-79-79v158l79-79z" horiz-adv-x="1000" />
<glyph glyph-name="bluetooth-off" unicode="&#xe83e;" d="m542 608l79-79-67-66 59-59 125 125-238 238h-42v-209l84-83v133z m-317 75l-58-58 275-275-234-233 59-59 191 192v-317h42l179 180 96-96 58 58-608 608z m317-591v158l79-79-79-79z" horiz-adv-x="1000" />
<glyph glyph-name="book" unicode="&#xe83f;" d="m750-67c46 0 83 38 83 84v666c0 46-37 84-83 84h-250v-292l-104 63-104-63v292h-42c-46 0-83-38-83-84v-666c0-46 37-84 83-84h500z" horiz-adv-x="1000" />
<glyph glyph-name="cake" unicode="&#xe840;" d="m500 621c33 0 63 29 63 62 0 13-5 21-9 34l-54 91-54-91c-4-9-8-21-8-34 0-33 29-62 62-62z m271-104h-229v62h-84v-62h-229c-104 0-187-84-187-188 0-66 33-121 83-154v-283h750v283c50 33 83 92 83 154 0 104-83 188-187 188z m0-292c-29 0-54 13-75 29l-63 63-62-63c-17-16-42-29-71-29-29 0-54 13-75 29l-62 63-63-63c-17-16-42-29-71-29-58 0-104 46-104 104s46 104 104 104h542c58 0 104-45 104-104s-46-104-104-104z" horiz-adv-x="1000" />
<glyph glyph-name="call" unicode="&#xe841;" d="m275 400c58-117 158-212 275-275l92 92c12 12 29 16 41 8 46-17 96-25 150-25 25 0 42-17 42-42v-141c0-25-17-42-42-42-391 0-708 317-708 708 0 25 17 42 42 42h146c25 0 41-17 41-42 0-50 9-100 25-150 4-12 0-29-8-41l-96-92z" horiz-adv-x="1000" />
<glyph glyph-name="captions" unicode="&#xe842;" d="m792 683h-584c-45 0-83-37-83-83v-500c0-46 38-83 83-83h584c46 0 83 37 83 83v500c0 46-37 83-83 83z m-334-291h-62v21h-83v-125h83v20h62v-41c0-25-16-42-41-42h-125c-25 0-42 17-42 42v166c0 25 17 42 42 42h125c25 0 41-17 41-42v-41z m292 0h-62v21h-84v-125h84v20h62v-41c0-25-17-42-42-42h-125c-25 0-41 17-41 42v166c0 25 16 42 41 42h125c25 0 42-17 42-42v-41z" horiz-adv-x="1000" />
<glyph glyph-name="check" unicode="&#xe843;" d="m375 175l-175 175-58-58 233-234 500 500-58 59z" horiz-adv-x="1000" />
<glyph glyph-name="close" unicode="&#xe844;" d="m792 583l-59 59-233-234-233 234-59-59 234-233-234-233 59-59 233 234 233-234 59 59-234 233z" horiz-adv-x="1000" />
<glyph glyph-name="cloud" unicode="&#xe845;" d="m808 433c-29 142-154 250-308 250-121 0-225-66-275-166-129-17-225-121-225-250 0-138 113-250 250-250h542c116 0 208 91 208 208 0 108-87 200-192 208z" horiz-adv-x="1000" />
<glyph glyph-name="copy" unicode="&#xe846;" d="m667 808h-500c-46 0-84-37-84-83v-583h84v583h500v83z m125-166h-459c-45 0-83-38-83-84v-583c0-46 38-83 83-83h459c46 0 83 37 83 83v583c0 46-37 84-83 84z m0-667h-459v583h459v-583z" horiz-adv-x="1000" />
<glyph glyph-name="crop" unicode="&#xe847;" d="m708 225h84v333c0 46-38 84-84 84h-333v-84h333v-333z m-416-83v666h-84v-166h-166v-84h166v-416c0-46 38-84 84-84h416v-166h84v166h166v84h-666z" horiz-adv-x="1000" />
<glyph glyph-name="cut" unicode="&#xe848;" d="m417 600c0 92-75 167-167 167s-167-75-167-167c0-92 75-167 167-167 25 0 46 5 67 17l100-100-100-100c-21 13-42 17-67 17-92 0-167-75-167-167 0-92 75-167 167-167s167 75 167 167c0 25-4 46-17 67l100 100 292-292h166l-558 558c13 21 17 42 17 67z m-167-83c-46 0-83 37-83 83s37 83 83 83c46 0 83-37 83-83s-37-83-83-83z m0-500c-46 0-83 37-83 83s37 83 83 83c46 0 83-37 83-83s-37-83-83-83z m250 354c13 0 21-8 21-21 0-12-8-21-21-21-12 0-21 9-21 21 0 13 9 21 21 21z m458 354h-166l-250-250 83-83 333 333z" horiz-adv-x="1000" />
<glyph glyph-name="directions" unicode="&#xe849;" d="m904 379l-375 375 0 0c-16 17-41 17-58 0l-375-375c-17-16-17-41 0-58l375-375c0 0 0 0 0 0 17-17 42-17 58 0l375 375c17 17 17 42 0 58z m-321-133v104h-166v-125h-84v167c0 25 17 41 42 41h208v105l146-146-146-146z" horiz-adv-x="1000" />
<glyph glyph-name="download" unicode="&#xe84a;" d="m792 475h-167v250h-250v-250h-167l292-292 292 292z m-584-375v-83h584v83h-584z" horiz-adv-x="1000" />
<glyph glyph-name="fast-forward" unicode="&#xe84b;" d="m167 100l354 250-354 250v-500z m375 500v-500l354 250-354 250z" horiz-adv-x="1000" />
<glyph glyph-name="fast-rewind" unicode="&#xe84c;" d="m458 100v500l-354-250 354-250z m21 250l354-250v500l-354-250z" horiz-adv-x="1000" />
<glyph glyph-name="flag" unicode="&#xe84d;" d="m600 600l-17 83-375 0 0-708 84 0 0 292 233 0 17-84 291 0 0 417z" horiz-adv-x="1000" />
<glyph glyph-name="forward" unicode="&#xe84e;" d="m500 683l-58-58 233-233-508 0 0-84 508 0-233-233 58-58 333 333z" horiz-adv-x="1000" />
<glyph glyph-name="google" unicode="&#xe84f;" d="m679 292l-46 33c-16 13-33 29-33 58 0 30 21 55 42 67 54 42 108 88 108 179 0 88-54 138-83 163h71l50 58h-259c-183 0-275-117-275-242 0-95 75-200 209-200h33c-4-12-17-33-17-54 0-41 17-58 38-83-59-4-167-17-246-67-75-46-96-108-96-154 0-96 88-188 275-188 225 0 333 125 333 246 0 88-45 134-104 184z m-316 379c0 92 54 133 112 133 108 0 167-146 167-229 0-108-88-129-121-129-104 0-158 129-158 225z m150-750c-138 0-225 62-225 154 0 92 83 121 108 133 54 17 125 21 137 21 13 0 21 0 30 0 100-71 141-100 141-166 0-80-79-142-191-142z" horiz-adv-x="1000" />
<glyph glyph-name="hd" unicode="&#xe850;" d="m792 683h-584c-45 0-83-37-83-83v-500c0-46 38-83 83-83h584c46 0 83 37 83 83v500c0 46-37 83-83 83z m-334-458h-62v83h-83v-83h-63v250h63v-104h83v104h62v-250z m292 42c0-25-17-42-42-42h-33v-62h-62v62h-30c-25 0-41 17-41 42v166c0 25 16 42 41 42h125c25 0 42-17 42-42v-166z m-146 21h84v125h-84v-125z" horiz-adv-x="1000" />
<glyph glyph-name="history" unicode="&#xe851;" d="m500 767c-229 0-417-188-417-417s188-417 417-417c229 0 417 188 417 417s-188 417-417 417z m0-750c-183 0-333 150-333 333s150 333 333 333c183 0 333-150 333-333s-150-333-333-333z m21 541l-63 0 0-250 217-133 33 54-187 113z" horiz-adv-x="1000" />
<glyph glyph-name="home" unicode="&#xe852;" d="m417 17l0 250 166 0 0-250 209 0 0 333 125 0-417 375-417-375 125 0 0-333z" horiz-adv-x="1000" />
<glyph glyph-name="image" unicode="&#xe853;" d="m875 58v584c0 46-37 83-83 83h-584c-45 0-83-37-83-83v-584c0-45 38-83 83-83h584c46 0 83 38 83 83z m-521 230l104-125 146 187 188-250h-584l146 188z" horiz-adv-x="1000" />
<glyph glyph-name="inbox" unicode="&#xe854;" d="m792 725h-584c-45 0-83-37-83-83l0-584c0-45 38-83 83-83h584c46 0 83 38 83 83v584c0 46-37 83-83 83z m0-500h-167c0-71-54-125-125-125-71 0-125 54-125 125h-167v417h584v-417z m-125 208h-84v125h-166v-125h-84l167-166 167 166z" horiz-adv-x="1000" />
<glyph glyph-name="info" unicode="&#xe855;" d="m458 142h84v250h-84v-250z m42 625c-229 0-417-188-417-417s188-417 417-417c229 0 417 188 417 417s-188 417-417 417z m0-750c-183 0-333 150-333 333s150 333 333 333c183 0 333-150 333-333s-150-333-333-333z m-42 458h84v83h-84v-83z" horiz-adv-x="1000" />
<glyph glyph-name="language" unicode="&#xe856;" d="m500 767c-229 0-417-188-417-417s188-417 417-417c229 0 417 188 417 417s-188 417-417 417z m288-250h-121c-13 54-34 100-59 150 75-29 142-79 180-150z m-288 166c33-50 63-104 79-166h-158c17 58 46 116 79 166z m-321-416c-8 25-12 54-12 83s4 58 12 83h142c-4-29-4-54-4-83s4-54 4-83h-142z m34-84h120c13-54 34-100 59-150-75 30-142 80-179 150z m120 334h-120c41 71 104 121 179 150-25-50-46-96-59-150z m167-500c-33 50-62 104-79 166h158c-16-58-46-116-79-166z m96 250h-192c-4 29-8 54-8 83s4 54 8 83h196c4-29 8-54 8-83s-8-54-12-83z m12-234c25 46 46 96 59 150h121c-38-70-105-120-180-150z m75 234c5 29 5 54 5 83s-5 54-5 83h142c8-25 13-54 13-83s-5-58-13-83h-142z" horiz-adv-x="1000" />
<glyph glyph-name="launch" unicode="&#xe857;" d="m792 58h-584v584h292v83h-292c-45 0-83-37-83-83v-584c0-45 38-83 83-83h584c46 0 83 38 83 83v292h-83v-292z m-209 667v-83h150l-408-409 58-58 409 408v-150h83v292h-292z" horiz-adv-x="1000" />
<glyph glyph-name="link" unicode="&#xe858;" d="m333 308h334v84h-334v-84z m-170 42c0 96 75 171 170 171h125v79h-125c-137 0-250-112-250-250s113-250 250-250h125v79h-125c-95 0-170 75-170 171z m504 250h-125v-79h125c96 0 171-75 171-171 0-96-75-171-171-171h-125v-79h125c137 0 250 113 250 250s-113 250-250 250z" horiz-adv-x="1000" />
<glyph glyph-name="location" unicode="&#xe859;" d="m500 517c-92 0-167-75-167-167 0-92 75-167 167-167s167 75 167 167c0 92-75 167-167 167z m371-125c-21 175-158 312-329 329v87h-84v-87c-175-17-312-154-329-329h-87v-84h87c21-175 159-312 329-329v-87h84v87c175 21 312 159 329 329h87v84h-87z m-371-334c-162 0-292 130-292 292 0 163 130 292 292 292s292-129 292-292c0-162-129-292-292-292z" horiz-adv-x="1000" />
<glyph glyph-name="location-off" unicode="&#xe85a;" d="m871 392c-21 175-158 312-329 329v87h-84v-87c-45-4-91-17-133-38l63-62c37 12 75 21 112 21 163 0 292-129 292-292 0-37-9-75-21-112l62-63c21 42 34 83 42 133h83v84h-87z m-746 279l83-83c-41-55-70-121-79-196h-87v-84h87c21-175 159-312 329-329v-87h84v87c75 8 141 38 196 84l83-84 54 54-696 692-54-54z m554-550c-50-42-112-63-179-63-162 0-292 130-292 292 0 67 21 129 63 179l408-408z" horiz-adv-x="1000" />
<glyph glyph-name="lock" unicode="&#xe85b;" d="m750 517h-42v83c0 117-91 208-208 208-117 0-208-91-208-208v-83h-42c-46 0-83-38-83-84v-416c0-46 37-84 83-84h500c46 0 83 38 83 84v416c0 46-37 84-83 84z m-250-375c-46 0-83 37-83 83s37 83 83 83c46 0 83-37 83-83s-37-83-83-83z m129 375h-258v83c0 71 58 129 129 129 71 0 129-58 129-129v-83z" horiz-adv-x="1000" />
<glyph glyph-name="loop" unicode="&#xe85c;" d="m500 683v125l-167-166 167-167v125c138 0 250-112 250-250 0-42-12-83-29-117l62-62c30 54 50 112 50 179 0 183-150 333-333 333z m0-583c-137 0-250 113-250 250 0 42 13 83 29 117l-62 62c-29-54-50-112-50-179 0-183 150-333 333-333v-125l167 166-167 167v-125z" horiz-adv-x="1000" />
<glyph glyph-name="mail" unicode="&#xe85d;" d="m833 683h-666c-46 0-84-37-84-83l0-500c0-46 38-83 84-83h666c46 0 84 37 84 83v500c0 46-38 83-84 83z m0-166l-333-209-333 209v83l333-208 333 208v-83z" horiz-adv-x="1000" />
<glyph glyph-name="mail-open" unicode="&#xe85e;" d="m917 517c0 29-17 54-38 71l-379 220-379-220c-21-17-38-42-38-71v-417c0-46 38-83 84-83h666c46 0 84 37 84 83l0 417z m-417-209l-346 217 346 200 346-200-346-217z" horiz-adv-x="1000" />
<glyph glyph-name="map" unicode="&#xe85f;" d="m854 725c-4 0-4 0-8 0l-221-87-250 87-233-79c-9-4-17-8-17-21v-629c0-13 8-21 21-21 4 0 4 0 8 0l221 88 250-88 233 79c9 4 17 13 17 21v629c0 13-8 21-21 21z m-229-667l-250 88v496l250-88v-496z" horiz-adv-x="1000" />
<glyph glyph-name="menu" unicode="&#xe860;" d="m125 100h750v83h-750v-83z m0 208h750v84h-750v-84z m0 292v-83h750v83h-750z" horiz-adv-x="1000" />
<glyph glyph-name="message" unicode="&#xe861;" d="m833 767h-666c-46 0-84-38-84-84l0-750 167 167h583c46 0 84 38 84 83v500c0 46-38 84-84 84z m-83-500h-500v83h500v-83z m0 125h-500v83h500v-83z m0 125h-500v83h500v-83z" horiz-adv-x="1000" />
<glyph glyph-name="message-empty" unicode="&#xe862;" d="m833 767h-666c-46 0-84-38-84-84v-750l167 167h583c46 0 84 38 84 83v500c0 46-38 84-84 84z" horiz-adv-x="1000" />
<glyph glyph-name="mic" unicode="&#xe863;" d="m500 225c71 0 125 54 125 125l0 250c0 71-54 125-125 125-71 0-125-54-125-125v-250c0-71 54-125 125-125z m221 125c0-125-104-212-221-212-117 0-221 87-221 212h-71c0-142 113-258 250-279v-138h84v138c137 21 250 137 250 279h-71z" horiz-adv-x="1000" />
<glyph glyph-name="mic-off" unicode="&#xe864;" d="m792 350h-71c0-29-8-58-17-83l50-50c25 37 38 83 38 133z m-167-8c0 4 0 4 0 8v250c0 71-54 125-125 125-71 0-125-54-125-125v-8l250-250z m-446 341l-54-54 250-250 0-29c0-71 54-125 125-125 8 0 17 0 29 4l71-71c-29-12-62-20-96-20-116 0-221 87-221 212h-75c0-142 113-258 250-279v-138h84v138c37 4 75 21 104 37l175-175 54 54-696 696z" horiz-adv-x="1000" />
<glyph glyph-name="minus" unicode="&#xe865;" d="m792 308h-584v84h584v-84z" horiz-adv-x="1000" />
<glyph glyph-name="more" unicode="&#xe866;" d="m500 517c46 0 83 37 83 83s-37 83-83 83c-46 0-83-37-83-83s37-83 83-83z m0-84c-46 0-83-37-83-83s37-83 83-83c46 0 83 37 83 83s-37 83-83 83z m0-250c-46 0-83-37-83-83s37-83 83-83c46 0 83 37 83 83s-37 83-83 83z" horiz-adv-x="1000" />
<glyph glyph-name="movie" unicode="&#xe867;" d="m750 683l83-166h-125l-83 166h-83l83-166h-125l-83 166h-84l84-166h-125l-84 166h-41c-46 0-84-37-84-83l0-500c0-46 38-83 84-83h666c46 0 84 37 84 83v583h-167z" horiz-adv-x="1000" />
<glyph glyph-name="news" unicode="&#xe868;" d="m846 654l-67 71-71-71-70 71-71-71-67 71-71-71-66 71-71-71-71 71-67-71-71 71v-667c0-45 38-83 84-83h666c46 0 84 38 84 83l0 667-71-71z m-346-596h-333v292h333v-292z m333 0h-291v42h291v-42z m0 84h-291v41h291v-41z m0 83h-291v42h291v-42z m0 83h-291v42h291v-42z m0 84h-666v125h666v-125z" horiz-adv-x="1000" />
<glyph glyph-name="notifications" unicode="&#xe869;" d="m479-67c46 0 84 38 84 84h-167c0-46 37-84 83-84z m271 250v230c0 129-87 233-208 262v29c0 34-29 63-63 63-33 0-62-29-62-63v-29c-121-29-209-133-209-262v-230l-83-83v-42h708v42l-83 83z" horiz-adv-x="1000" />
<glyph glyph-name="notifications-none" unicode="&#xe86a;" d="m479-67c46 0 84 38 84 84h-167c0-46 37-84 83-84z m271 250v230c0 129-87 233-208 262v29c0 34-29 63-63 63-33 0-62-29-62-63v-29c-121-29-209-133-209-262v-230l-83-83v-42h708v42l-83 83z m-83-41h-375v271c0 104 83 187 187 187 104 0 188-83 188-187v-271z" horiz-adv-x="1000" />
<glyph glyph-name="notifications-off" unicode="&#xe86b;" d="m479-67c46 0 84 38 84 84h-167c0-46 37-84 83-84z m271 480c0 129-87 233-208 262v29c0 34-29 63-63 63-33 0-62-29-62-63v-29c-21-4-42-12-59-21l392-391v150z m-12-355l83-83 54 54-696 696-54-54 121-121c-25-42-38-87-38-137v-230l-83-83v-42h613z" horiz-adv-x="1000" />
<glyph glyph-name="paste" unicode="&#xe86c;" d="m792 767h-175c-17 50-63 83-117 83-54 0-100-33-117-83h-175c-45 0-83-38-83-84v-666c0-46 38-84 83-84h584c46 0 83 38 83 84v666c0 46-37 84-83 84z m-292 0c25 0 42-17 42-42s-17-42-42-42c-25 0-42 17-42 42s17 42 42 42z m292-750h-584v666h84v-125h416v125h84v-666z" horiz-adv-x="1000" />
<glyph glyph-name="pause" unicode="&#xe86d;" d="m250 58h167v584h-167v-584z m333 584v-584h167v584h-167z" horiz-adv-x="1000" />
<glyph glyph-name="calendar" unicode="&#xe86e;" d="m792 725h-42v83h-83v-83h-334v83h-83v-83h-42c-45 0-83-37-83-83l0-584c0-45 38-83 83-83h584c46 0 83 38 83 83v584c0 46-37 83-83 83z m0-667h-584v459h584v-459z m-500 375l208 0 0-208-208 0z" horiz-adv-x="1000" />
<glyph glyph-name="camera" unicode="&#xe86f;" d="m375 767l-75-84h-133c-46 0-84-37-84-83v-500c0-46 38-83 84-83h666c46 0 84 37 84 83v500c0 46-38 83-84 83h-133l-75 84h-250z m125-625c-117 0-208 91-208 208s91 208 208 208 208-91 208-208-91-208-208-208z m-133 208a133-133 0 1 0 266 0 133-133 0 1 0-266 0" horiz-adv-x="1000" />
<glyph glyph-name="share-1" unicode="&#xe870;" d="m875 392l-292 291v-166c-291-42-416-250-458-459 104 146 250 213 458 213v-171l292 292z" horiz-adv-x="1000" />
</font>
</defs>
</svg>
